# xmcd CD database file generated by Grip 3.0.4
# 
# Track frame offsets:
#       150
#       16948
#       31217
#       54922
#       73749
#       92812
#       109862
#       135999
#       158455
#       185927
#       204418
#       234280
#       251018
#       263799
#       284761
# 
# Disc length: 4024 seconds
# 
# Revision: 1
# Processed by: cddbd v1.4PL0 Copyright (c) Steve Scherf et al.
# Submitted via: Grip 3.0.4
# 
DISCID=cd0fb60f
DTITLE=Gidi Gov - Moon Dance
DYEAR=2003
DGENRE=Jazz
TTITLE0=Eden
TTITLE1=This won't be taken from me
TTITLE2=Was, or maybe wasn't
TTITLE3=No-man's land
TTITLE4=Gigolo
TTITLE5=Romance is the main thing
TTITLE6=The fool's song
TTITLE7=Moon dance
TTITLE8=One soft touch
TTITLE9=Average girl
TTITLE10=Why your heart is like ice?
TTITLE11=Somewhere there is...
TTITLE12=Good night
TTITLE13=What a wonderful day
TTITLE14=November
EXTD=YEAR: 2003
EXTT0=
EXTT1=
EXTT2=
EXTT3=
EXTT4=
EXTT5=
EXTT6=
EXTT7=
EXTT8=
EXTT9=
EXTT10=
EXTT11=
EXTT12=
EXTT13=
EXTT14=
PLAYORDER=
